<?xml version="1.0" encoding="UTF-8"?>
<!DOCTYPE svg PUBLIC "-//W3C//DTD SVG 1.1//EN" "http://www.w3.org/Graphics/SVG/1.1/DTD/svg11.dtd">
<!-- Creator: CorelDRAW -->
<svg xmlns="http://www.w3.org/2000/svg" xml:space="preserve" width="6.6038mm" height="4.742mm" version="1.1" style="shape-rendering:geometricPrecision; text-rendering:geometricPrecision; image-rendering:optimizeQuality; fill-rule:evenodd; clip-rule:evenodd"
viewBox="0 0 660.38 474.2"
 xmlns:xlink="http://www.w3.org/1999/xlink"
 xmlns:xodm="http://www.corel.com/coreldraw/odm/2003">

 <g id="Layer_x0020_1">
  <metadata id="CorelCorpID_0Corel-Layer"/>
  <path class="fil0" d="M-0 125.66c0,36.24 -1.29,61.58 22.96,93.03 1.9,2.46 2.88,4.25 4.33,6.07 1.72,2.18 3.85,4.08 5.63,5.85 2.01,1.99 3.28,3.24 5.35,5.15 12.46,11.51 44.55,31.44 62.15,37.01 5.46,1.72 9.98,4.34 15.66,6.32 35.25,12.25 63.82,8.74 63.81,52.37 0,11.6 -13.03,29.11 -20.3,33.2 -11.51,6.48 -35.13,3.29 -50.95,3.29 -36.14,0 -72.28,0 -108.42,0l-0.18 105.28c39.01,0 155.15,1.7 184.87,-1.11 14.05,-1.32 25.27,-4.19 36.21,-9.31 25.64,-12.01 46.02,-34.18 56.08,-61.18l5.9 -17.55c2.09,15.63 0.23,67.93 0.82,89.63 42.83,1.01 96.23,0.11 140.21,0.11 75.91,-0.01 140.59,-35.59 185.99,-92.23 8.67,-10.82 16.42,-20.95 23.15,-33.09 7.21,-13 11.95,-23.66 17.17,-38.26 12.58,-35.17 9.63,-61.26 9.68,-97.87 -0.01,-13.22 -5.28,-34.01 -9.38,-46.04 -6.97,-20.42 -16.9,-38.22 -28.29,-56.3 -12.92,-20.49 -50.05,-57.49 -69.96,-69.84 -26.76,-16.61 -69.77,-37.42 -102.18,-38.26 -26.67,-0.69 -50.01,-0.05 -76.33,-1.14 -29.85,-1.24 -74.18,-0.21 -105.5,-0.37l-33.53 -0.28 -0.09 113.92c35.99,1.33 105.5,0.19 145.4,0.21l31.34 0.01c55.74,0.01 107.78,43.02 121.15,94.67 3.77,14.58 3.1,27.37 2.61,43.18 -0.25,8.19 -6.85,28.98 -10.69,35.9 -21.49,38.7 -65.33,73.98 -113.64,72.21 -2.63,-9.9 -0.12,-140.55 -0.61,-174.11 -0.09,-5.86 -0.44,-5.83 -6.14,-5.83 -29.72,0 -94.71,-1.15 -120.41,0.25 -1.21,12.81 -0.31,74.97 -0.24,96.59l-1.11 12.96c-0.09,0.2 -0.27,0.53 -0.46,0.76l-6.6 -17.44c-8.04,-16.59 -17.95,-29.66 -33.59,-40.63 -59.6,-41.81 -111.94,-43.16 -131.83,-65.69 -8.78,-9.94 -12.33,-23.83 -5.98,-37.64 8.82,-19.17 34.78,-15.36 57.86,-15.38l7.37 -0.03 0.23 -113.77c-24.61,-0.76 -48.85,0.21 -72.38,1.54 -34.76,1.96 -68.77,30.06 -84.09,62.68 -8.92,19 -13.04,36.34 -13.05,61.16z"/>
 </g>
</svg>
